<?xml version="1.0" standalone="no"?>
<!DOCTYPE svg PUBLIC "-//W3C//DTD SVG 20010904//EN"
 "http://www.w3.org/TR/2001/REC-SVG-20010904/DTD/svg10.dtd">
<svg version="1.0" xmlns="http://www.w3.org/2000/svg"
 width="1024.000000pt" height="1024.000000pt" viewBox="0 0 1024.000000 1024.000000"
 preserveAspectRatio="xMidYMid meet">

<g transform="translate(0.000000,1024.000000) scale(0.100000,-0.100000)"
fill="#000000" stroke="none">
<path d="M4825 8890 l-50 -7 53 -1 c29 -1 52 2 52 8 0 6 -1 9 -2 8 -2 0 -25
-4 -53 -8z"/>
<path d="M4890 8893 c0 -7 26 -11 62 -10 52 1 64 -2 66 -17 2 -9 -1 -23 -8
-31 -9 -10 -7 -15 10 -20 11 -3 18 -11 15 -16 -4 -5 -13 -2 -22 7 -17 17 -49
16 -198 -5 -59 -8 -223 -28 -247 -30 -5 -1 -8 -8 -8 -16 0 -8 -9 -15 -20 -15
-11 0 -20 -4 -20 -10 0 -5 -9 -10 -20 -10 -17 0 -20 -7 -20 -39 l0 -39 68 -8
67 -7 -100 -17 c-55 -10 -131 -25 -169 -34 -38 -9 -71 -14 -74 -11 -3 3 2 5
11 5 10 0 17 4 17 10 0 5 8 9 18 8 41 -3 49 2 44 27 -4 23 -8 25 -63 25 -33 0
-59 4 -59 10 0 18 -29 11 -40 -10 -9 -17 -21 -20 -88 -20 -99 0 -152 -14 -152
-40 0 -13 -7 -20 -20 -20 -13 0 -20 -7 -20 -20 0 -13 -7 -20 -20 -20 -17 0
-20 -6 -17 -35 1 -19 7 -33 12 -31 6 2 9 8 8 14 -2 7 10 10 27 9 27 -2 44 -17
19 -17 -6 0 -74 -27 -152 -61 -78 -33 -146 -61 -152 -62 -5 -1 -12 -5 -15 -8
-10 -12 -69 -37 -74 -31 -14 14 -4 29 17 25 35 -7 67 30 67 77 0 33 -3 40 -20
40 -11 0 -20 -7 -20 -15 0 -8 -9 -15 -20 -15 -11 0 -20 5 -20 10 0 6 -9 10
-20 10 -11 0 -20 -7 -20 -15 0 -8 -7 -15 -15 -15 -8 0 -15 -9 -15 -20 0 -11
-3 -19 -7 -19 -36 6 -73 -3 -73 -17 0 -17 -23 -44 -38 -44 -6 0 -12 -5 -14
-10 -2 -6 -29 -14 -61 -17 -56 -6 -57 -6 -57 -38 0 -18 -7 -38 -15 -45 -11 -9
-13 -16 -6 -23 7 -7 15 -6 26 3 10 8 15 9 15 1 0 -18 58 -13 69 7 6 9 11 14
11 9 0 -4 11 0 25 9 14 9 25 12 25 6 0 -5 -7 -12 -15 -16 -8 -3 -74 -44 -146
-92 -103 -67 -134 -83 -143 -74 -8 10 -8 11 2 6 6 -4 12 -2 12 3 0 6 5 10 12
9 7 -2 12 6 13 17 0 13 6 19 18 19 13 -1 17 6 17 32 0 24 -5 34 -15 34 -8 0
-15 -4 -15 -10 0 -5 -11 -12 -25 -16 -14 -3 -25 -10 -25 -15 0 -5 -9 -9 -20
-9 -11 0 -20 7 -20 15 0 8 -7 15 -15 15 -8 0 -15 -9 -15 -20 0 -13 -9 -22 -25
-26 -14 -3 -25 -12 -25 -20 0 -8 -7 -14 -15 -14 -8 0 -15 -9 -15 -20 0 -18 7
-20 68 -21 37 -1 74 0 82 1 19 2 10 -6 -60 -55 -68 -48 -153 -119 -266 -224
-55 -51 -95 -77 -79 -51 3 5 1 10 -4 10 -6 0 -11 9 -11 20 0 17 -7 20 -50 20
-43 0 -50 -3 -50 -20 0 -17 -7 -20 -40 -20 -34 0 -40 -3 -40 -21 0 -18 -5 -20
-42 -17 -29 2 -42 7 -40 16 1 8 -2 11 -9 7 -8 -5 -8 -10 0 -18 14 -14 14 -47
1 -47 -5 0 -10 -6 -10 -14 0 -15 -56 -39 -70 -31 -12 7 -61 -55 -54 -67 4 -6
2 -8 -3 -5 -12 8 -49 -38 -82 -98 -11 -22 -21 -35 -21 -30 0 21 -162 -237
-240 -384 -190 -356 -301 -682 -369 -1086 -41 -240 -50 -344 -51 -571 -1 -737
210 -1415 634 -2044 210 -311 455 -573 771 -826 417 -334 1008 -597 1541 -688
442 -75 794 -77 1252 -7 546 84 1096 319 1557 664 165 123 229 179 380 326
191 186 351 387 520 656 103 163 283 529 337 685 108 308 178 644 198 950 22
346 -23 812 -112 1150 -36 139 -128 404 -177 514 -77 171 -115 239 -126 228
-5 -4 -5 -1 -1 5 4 7 -4 34 -17 60 -37 74 -51 93 -67 93 -10 0 -11 3 -4 8 16
10 -55 117 -78 118 -10 1 -18 -4 -18 -11 0 -7 -14 -15 -31 -19 -45 -9 -49 -8
-49 9 0 8 -9 15 -20 15 -11 0 -20 5 -20 10 0 6 -9 10 -20 10 -11 0 -20 5 -20
11 0 6 -18 9 -44 8 -39 -3 -85 15 -72 28 2 2 -8 16 -23 31 -61 63 -101 118
-95 132 3 8 2 11 -2 7 -12 -11 -33 13 -27 30 5 12 2 15 -9 11 -11 -5 -14 0
-13 16 2 17 -2 22 -18 22 -15 -1 -22 5 -22 19 0 11 -6 19 -13 17 -19 -4 -46
25 -29 31 7 3 5 6 -6 6 -10 1 -22 12 -27 26 -5 14 -16 25 -25 25 -8 0 -15 6
-15 14 0 8 -5 18 -12 22 -7 5 -8 3 -3 -5 5 -9 2 -9 -13 0 -12 7 -19 15 -17 18
3 2 -10 15 -27 28 -18 12 -26 23 -19 23 7 0 9 5 6 10 -3 6 -14 10 -24 10 -10
0 -21 9 -24 20 -3 11 -1 18 4 14 5 -3 9 -1 9 4 0 13 -29 24 -43 15 -6 -4 -8 0
-5 9 4 8 2 21 -3 29 -5 9 -9 10 -9 2 0 -6 -9 -11 -19 -10 -15 1 -17 5 -11 17
6 12 4 16 -10 16 -10 0 -16 -5 -14 -11 3 -5 -4 0 -15 13 -15 17 -19 31 -14 53
5 24 2 29 -15 29 -11 0 -23 6 -26 13 -5 10 -7 10 -12 0 -3 -7 -14 -13 -25 -13
-20 0 -22 7 -19 53 1 24 -2 27 -29 27 -20 0 -31 5 -31 14 0 19 -20 25 -50 15
-21 -8 -23 -7 -9 4 14 10 14 14 3 25 -13 11 -49 28 -67 31 -4 0 -17 9 -29 20
-15 15 -25 18 -39 11 -10 -6 -27 -6 -40 -2 -19 7 -20 10 -6 15 23 9 21 27 -3
27 -11 0 -20 6 -20 14 0 16 -58 27 -63 12 -3 -6 -15 2 -27 17 -17 21 -29 28
-46 24 -13 -2 -24 0 -24 4 0 5 9 9 20 9 11 0 20 5 20 10 0 6 -9 10 -20 10 -16
0 -20 7 -20 35 0 35 0 35 -45 35 -49 0 -115 27 -115 47 0 7 -9 13 -20 13 -33
0 -23 -17 25 -41 25 -12 43 -24 41 -27 -6 -5 -76 20 -76 28 0 3 -12 6 -27 7
-27 2 -27 2 7 -17 19 -11 29 -19 22 -20 -7 0 -20 4 -30 9 -9 5 -37 19 -62 31
l-45 21 43 -6 c43 -5 59 8 22 20 -11 4 -20 15 -20 27 0 18 -4 19 -37 12 -21
-4 -54 -7 -73 -6 -35 1 -35 1 -7 -10 15 -5 27 -13 27 -18 0 -5 -18 -1 -39 8
-22 9 -37 21 -34 26 4 5 1 6 -4 3 -6 -4 -37 2 -69 12 -135 44 -270 78 -449
113 -33 7 -51 14 -40 16 11 2 35 8 53 13 29 10 32 14 32 52 0 40 -2 43 -37 55
-51 18 -103 30 -191 43 -40 6 -79 17 -87 25 -7 8 -19 14 -25 14 -15 0 -40 25
-40 41 0 9 30 10 128 5 70 -3 143 -9 162 -13 19 -3 33 -3 30 0 -25 27 -770 65
-770 40z m215 -164 c88 -63 98 -69 220 -114 132 -49 181 -75 235 -123 65 -57
110 -77 301 -132 173 -50 335 -108 486 -174 229 -101 549 -297 768 -470 145
-115 395 -370 500 -511 204 -273 372 -579 466 -846 44 -126 125 -427 143 -529
63 -363 57 -826 -14 -1180 -27 -135 -110 -404 -175 -565 -106 -265 -337 -642
-540 -880 -136 -159 -168 -190 -424 -403 -218 -182 -665 -436 -909 -516 -31
-11 -50 -22 -46 -28 4 -6 2 -8 -3 -5 -6 4 -68 -9 -138 -28 -129 -35 -440 -98
-550 -111 -85 -9 -509 -21 -515 -13 -3 3 -59 11 -125 17 -66 6 -172 21 -235
32 -63 11 -120 18 -127 15 -13 -4 -56 7 -108 30 -16 7 -57 20 -90 29 -151 42
-346 119 -525 208 -191 95 -195 96 -213 77 -10 -10 -23 -19 -30 -19 -7 0 -6
-4 3 -10 12 -8 10 -10 -8 -10 -16 0 -21 -4 -16 -13 5 -6 -3 -4 -16 6 -14 9
-45 27 -70 40 -25 12 -51 27 -57 34 -15 14 -17 63 -3 63 6 0 10 6 10 14 0 8 6
16 13 19 15 5 23 -2 -118 102 -66 49 -128 97 -138 107 -10 10 -23 15 -29 12
-6 -4 -8 -3 -5 3 4 6 -10 25 -31 43 -56 48 -251 240 -244 240 4 0 -5 11 -19
24 -14 13 -43 45 -64 70 -20 25 -43 46 -49 46 -13 0 -41 41 -37 55 1 5 -6 15
-15 22 -10 7 -14 13 -10 13 8 0 -26 51 -116 176 -32 44 -58 84 -58 87 0 4 -22
44 -49 89 -50 85 -176 332 -206 403 -66 157 -141 407 -180 600 -56 275 -61
748 -10 1052 35 208 113 496 182 668 131 330 381 724 640 1011 148 164 424
386 662 534 255 158 640 316 938 384 148 34 262 52 436 67 l147 13 0 45 c0 25
7 68 15 95 20 66 20 66 -17 55 -18 -5 -71 -8 -118 -8 -93 1 -90 4 13 14 37 4
65 10 63 14 -3 4 0 8 7 8 72 4 92 13 67 28 -5 3 -9 14 -9 23 1 15 2 15 6 0 2
-10 9 -18 14 -18 6 0 7 4 4 10 -7 11 25 59 40 60 6 0 42 -23 80 -51z m-427
-96 c-10 -2 -28 -2 -40 0 -13 2 -5 4 17 4 22 1 32 -1 23 -4z m1632 -203 c0 -5
-7 -10 -15 -10 -8 0 -15 5 -15 10 0 6 7 10 15 10 8 0 15 -4 15 -10z m185 -80
c3 -5 1 -10 -4 -10 -6 0 -11 5 -11 10 0 6 2 10 4 10 3 0 8 -4 11 -10z m-2945
-59 c0 -5 -7 -11 -14 -14 -10 -4 -13 -1 -9 9 6 15 23 19 23 5z m-89 -31 c5 0
10 8 10 18 1 15 2 16 6 0 2 -9 10 -16 16 -14 7 1 9 1 5 -1 -4 -3 -9 -3 -10 -1
-2 2 -14 -7 -27 -19 -13 -12 -29 -19 -35 -15 -7 4 -4 8 7 10 11 2 16 11 13 25
-1 12 -1 16 1 10 3 -7 9 -13 14 -13z m3224 -10 c3 -5 2 -10 -4 -10 -5 0 -13 5
-16 10 -3 6 -2 10 4 10 5 0 13 -4 16 -10z m75 -40 c0 -5 -4 -10 -10 -10 -5 0
-10 5 -10 10 0 6 5 10 10 10 6 0 10 -4 10 -10z m150 -91 c0 -4 6 -6 14 -3 14
5 62 -33 53 -42 -8 -9 -37 8 -37 23 0 7 -6 13 -12 12 -22 -2 -58 13 -53 22 7
10 35 0 35 -12z m186 -128 c-4 -5 0 -11 6 -14 7 -2 10 -7 7 -11 -3 -3 -14 3
-24 14 -17 18 -17 20 -1 20 9 0 15 -4 12 -9z m55 -58 c13 -16 12 -17 -3 -4
-10 7 -18 15 -18 17 0 8 8 3 21 -13z m40 -30 c13 -16 12 -17 -3 -4 -10 7 -18
15 -18 17 0 8 8 3 21 -13z m-4567 -315 c-3 -4 -9 -8 -15 -8 -5 0 -9 4 -9 8 0
5 7 9 15 9 8 0 12 -4 9 -9z m-24 -33 c0 -2 -8 -9 -18 -14 -14 -7 -19 -6 -19 3
0 6 9 13 19 13 10 1 18 0 18 -2z m-290 -43 c0 -13 -2 -14 -9 -4 -6 10 -10 8
-14 -9 -4 -13 -9 -21 -12 -17 -9 8 17 58 26 52 5 -3 9 -13 9 -22z m203 -54
c-25 -33 -47 -58 -49 -56 -2 2 3 22 11 43 8 22 14 34 15 26 0 -11 4 -10 20 4
10 9 19 20 18 24 -1 13 3 18 16 18 9 0 -3 -23 -31 -59z m5370 -288 c9 -11 13
-20 7 -20 -5 0 -14 9 -20 20 -6 11 -9 20 -8 20 2 0 11 -9 21 -20z m217 -15 c0
-8 -4 -15 -10 -15 -5 0 -7 7 -4 15 4 8 8 15 10 15 2 0 4 -7 4 -15z m-5810 1
c0 -3 -4 -8 -10 -11 -5 -3 -10 -1 -10 4 0 6 5 11 10 11 6 0 10 -2 10 -4z
m5627 -28 c-3 -8 -6 -5 -6 6 -1 11 2 17 5 13 3 -3 4 -12 1 -19z m233 1 c0 -6
-4 -7 -10 -4 -5 3 -10 1 -10 -4 0 -6 7 -11 15 -11 8 0 15 -4 15 -10 0 -5 -9
-10 -20 -10 -14 0 -20 7 -20 23 0 13 3 27 6 30 9 8 24 -1 24 -14z m-4432
-4791 c24 -10 57 -18 73 -18 22 0 29 -5 29 -20 0 -12 7 -20 18 -20 9 0 37 -14
62 -31 32 -22 38 -29 20 -24 -42 11 -127 48 -229 97 -79 40 -89 47 -56 41 22
-3 59 -14 83 -25z m2632 -2 c0 -2 -7 -7 -16 -10 -8 -3 -12 -2 -9 4 6 10 25 14
25 6z m-2235 -150 c17 -2 36 -5 43 -5 7 -1 10 -5 7 -11 -3 -5 2 -11 12 -11 17
-1 17 -2 1 -6 -10 -2 -18 -8 -18 -13 0 -4 -15 -4 -32 0 -29 8 -47 13 -110 36
-10 4 -18 10 -18 14 0 7 49 6 115 -4z m235 -92 l25 -15 -25 6 c-14 3 -38 8
-55 11 -42 8 -44 14 -4 14 19 -1 45 -8 59 -16z m1210 -1 c0 -8 -15 -13 -41
-13 -26 0 -38 4 -34 11 4 6 14 8 22 5 8 -3 12 -2 9 3 -3 5 5 8 19 7 14 0 25
-7 25 -13z m-193 -1 c7 -4 -9 -8 -35 -9 -40 0 -43 1 -17 7 17 4 32 8 35 9 3 0
10 -3 17 -7z m80 2 c-3 -3 -12 -4 -19 -1 -8 3 -5 6 6 6 11 1 17 -2 13 -5z
m-447 -31 c0 -16 -6 -23 -20 -23 -13 0 -20 7 -20 19 0 11 -6 21 -12 24 -7 2 2
4 20 4 27 0 32 -4 32 -24z m-537 10 c-7 -2 -21 -2 -30 0 -10 3 -4 5 12 5 17 0
24 -2 18 -5z m1194 -9 c-3 -3 -12 -4 -19 -1 -8 3 -5 6 6 6 11 1 17 -2 13 -5z"/>
<path d="M5096 8452 c-10 -63 -7 -329 4 -312 5 8 10 11 10 5 1 -5 8 2 16 18
16 29 44 37 44 12 0 -11 11 -15 36 -15 19 0 44 -5 55 -10 13 -7 19 -7 19 0 0
5 9 10 21 10 11 0 29 -5 40 -10 13 -7 19 -7 19 0 0 5 7 10 17 10 14 0 14 2 -2
20 -10 11 -22 17 -26 14 -5 -3 -9 1 -9 8 0 7 -17 22 -38 33 -23 12 -38 29 -40
43 -3 19 1 22 27 22 17 0 31 5 31 11 0 6 9 8 20 4 13 -4 20 -2 20 7 0 10 2 10
9 -1 5 -7 15 -11 22 -9 8 3 50 -10 94 -29 44 -19 76 -30 70 -25 -15 14 -364
196 -411 215 l-42 16 -6 -37z m248 -111 c-2 -3 -12 3 -22 13 -16 17 -16 18 5
5 12 -7 20 -15 17 -18z"/>
<path d="M5440 8131 c0 -5 9 -11 20 -14 11 -3 20 -12 20 -21 0 -9 -8 -16 -20
-16 -13 0 -20 -7 -20 -20 0 -13 7 -20 20 -20 13 0 20 -7 20 -20 0 -13 -7 -20
-20 -20 -13 0 -20 -7 -20 -20 0 -13 7 -20 20 -20 13 0 20 -7 20 -20 0 -13 7
-20 20 -20 13 0 20 -7 20 -20 0 -13 7 -20 20 -20 13 0 20 -7 20 -20 0 -19 7
-20 100 -20 93 0 100 1 100 20 0 13 7 20 20 20 13 0 20 7 20 19 0 13 8 21 23
23 17 2 4 12 -53 40 -41 21 -99 51 -128 68 -54 31 -78 38 -67 20 3 -5 -2 -10
-11 -10 -14 0 -15 3 -6 12 14 14 16 28 2 28 -5 0 -32 14 -60 30 -55 33 -60 34
-60 21z"/>
<path d="M5960 7856 c0 -13 -12 -16 -60 -16 -53 0 -60 -2 -60 -20 0 -19 7 -20
94 -20 l94 0 12 -30 c7 -16 19 -30 26 -30 8 0 14 -4 14 -10 0 -5 9 -10 20 -10
13 0 20 -7 20 -20 0 -13 7 -20 20 -20 13 0 20 -7 20 -20 0 -17 7 -20 41 -20
36 0 41 -3 36 -19 -3 -13 1 -21 15 -24 28 -8 48 2 48 24 0 12 7 19 20 19 11 0
20 6 20 13 0 8 3 9 8 1 4 -6 25 -14 47 -17 22 -3 32 -3 23 -1 -10 3 -18 9 -18
13 0 4 -51 31 -112 60 -115 53 -124 58 -185 92 -21 12 -44 17 -56 14 -17 -5
-19 -4 -7 4 12 8 11 11 -5 16 -11 4 -32 13 -47 21 -25 14 -28 13 -28 0z"/>
<path d="M4855 7769 c-213 -15 -323 -31 -451 -63 l-130 -32 4 23 c3 18 0 23
-18 23 -17 0 -21 -5 -18 -27 2 -22 -2 -28 -27 -35 -16 -4 -36 -6 -43 -3 -7 3
-11 1 -8 -4 8 -12 -123 -64 -141 -57 -8 3 -12 2 -9 -3 3 -5 -2 -11 -12 -14 -9
-3 -40 -17 -69 -30 -44 -22 -52 -23 -57 -10 -4 10 -2 13 8 10 9 -4 13 -1 10 6
-3 8 -20 11 -49 9 -28 -3 -45 0 -45 7 0 6 9 11 20 11 16 0 20 7 20 30 0 28 -2
30 -40 30 -33 0 -40 -3 -40 -20 0 -17 -7 -20 -40 -20 -28 0 -40 -4 -40 -14 0
-9 -12 -16 -27 -18 -25 -3 -28 -7 -27 -35 1 -18 -2 -31 -6 -28 -5 3 -12 -5
-15 -17 -11 -35 -78 -100 -215 -208 -69 -54 -156 -133 -194 -176 -39 -42 -85
-83 -105 -92 -23 -9 -82 -17 -163 -20 -102 -4 -128 -8 -128 -19 0 -9 -9 -14
-27 -12 -48 4 -71 -1 -86 -15 -8 -8 -34 -17 -58 -19 -29 -3 -46 -10 -53 -23
-6 -10 -14 -21 -17 -24 -13 -10 -107 -167 -144 -240 -20 -41 -44 -97 -52 -125
-8 -27 -25 -59 -37 -70 -13 -11 -33 -45 -44 -75 -11 -30 -23 -63 -27 -72 -5
-13 5 -23 45 -43 48 -24 153 -65 260 -102 25 -8 71 -28 102 -44 32 -16 63 -29
70 -29 7 0 27 19 43 41 48 65 157 150 261 205 92 48 100 54 137 115 251 414
719 763 1197 893 143 39 282 56 513 63 l207 6 0 -221 c0 -258 -10 -242 115
-186 115 51 377 148 545 201 131 42 154 46 240 46 79 0 112 -6 195 -33 169
-55 491 -217 630 -317 32 -24 65 -43 73 -43 7 0 57 18 110 41 76 31 300 117
462 175 11 4 -5 24 -55 70 -71 65 -92 78 -76 47 23 -44 42 -95 38 -100 -3 -3
-23 1 -44 7 -42 14 -195 89 -203 99 -3 4 -24 17 -47 28 -54 28 -87 47 -93 53
-3 3 -35 21 -72 40 -38 19 -68 38 -68 43 0 4 -3 6 -7 5 -16 -5 -113 43 -137
67 -14 14 -32 25 -41 25 -9 0 -67 15 -128 34 -62 18 -147 39 -189 45 -42 7
-112 23 -155 37 -316 101 -724 186 -973 204 -160 11 -195 11 -355 -1z m-1035
-285 c-60 -39 -57 -38 -57 -19 0 8 4 12 9 9 4 -3 19 4 33 14 17 13 21 22 13
24 -7 3 2 5 21 6 l34 1 -53 -35z"/>
<path d="M4120 7700 c0 -13 7 -20 20 -20 13 0 20 7 20 20 0 13 -7 20 -20 20
-13 0 -20 -7 -20 -20z"/>
<path d="M4190 7670 c-18 -12 -2 -12 25 0 13 6 15 9 5 9 -8 0 -22 -4 -30 -9z"/>
<path d="M3487 7490 c-9 -11 -13 -20 -9 -20 10 1 42 26 42 34 0 12 -16 6 -33
-14z"/>
<path d="M3400 7490 c0 -5 -9 -10 -20 -10 -26 0 -28 -40 -2 -41 12 0 10 -3 -7
-10 -16 -6 -28 -6 -35 1 -18 18 -56 12 -56 -10 0 -11 7 -20 15 -20 8 0 15 -4
15 -10 0 -12 -31 -28 -48 -24 -7 1 -8 0 -2 -3 7 -3 5 -12 -7 -26 -23 -26 -11
-20 87 47 41 28 84 56 94 61 21 12 24 27 5 34 -8 2 -10 -2 -6 -12 4 -10 -1
-17 -14 -20 -14 -4 -19 0 -19 14 0 10 5 19 10 19 6 0 10 5 10 10 0 6 -4 10
-10 10 -5 0 -10 -4 -10 -10z"/>
<path d="M3265 7380 c4 -6 11 -8 16 -5 14 9 11 15 -7 15 -8 0 -12 -5 -9 -10z"/>
<path d="M3175 7290 c-21 -16 -33 -30 -26 -30 6 0 19 9 28 19 9 11 20 18 24
16 4 -3 12 2 19 10 21 25 -5 17 -45 -15z"/>
<path d="M2842 7247 c-32 -33 -41 -52 -21 -45 6 2 10 7 9 12 -1 4 11 21 26 37
15 16 26 29 23 29 -3 0 -19 -15 -37 -33z"/>
<path d="M3109 7233 c-13 -16 -12 -17 4 -4 9 7 17 15 17 17 0 8 -8 3 -21 -13z"/>
<path d="M3049 7183 c-13 -16 -12 -17 4 -4 9 7 17 15 17 17 0 8 -8 3 -21 -13z"/>
<path d="M2781 7177 c-8 -10 -7 -14 2 -14 8 0 14 6 14 14 0 7 -1 13 -2 13 -2
0 -8 -6 -14 -13z"/>
<path d="M2736 7095 c4 -8 8 -15 10 -15 2 0 4 7 4 15 0 8 -4 15 -10 15 -5 0
-7 -7 -4 -15z"/>
<path d="M2700 7060 c-8 -5 -12 -12 -9 -15 4 -3 12 1 19 10 14 17 11 19 -10 5z"/>
<path d="M2625 6979 c-4 -6 -5 -12 -2 -15 2 -3 7 2 10 11 7 17 1 20 -8 4z"/>
<path d="M5018 6823 c12 -2 32 -2 45 0 12 2 2 4 -23 4 -25 0 -35 -2 -22 -4z"/>
<path d="M5208 6823 c6 -2 18 -2 25 0 6 3 1 5 -13 5 -14 0 -19 -2 -12 -5z"/>
<path d="M4663 6813 c9 -2 23 -2 30 0 6 3 -1 5 -18 5 -16 0 -22 -2 -12 -5z"/>
<path d="M5568 6813 c57 -4 63 -15 40 -64 -18 -38 -60 -53 -127 -45 -31 3
-186 6 -346 6 -325 0 -470 10 -536 38 -30 13 -51 17 -67 11 -16 -6 -22 -5 -22
6 0 59 -185 18 -341 -75 -79 -47 -135 -91 -293 -229 l-110 -96 70 -6 c168 -15
160 -18 248 66 158 151 247 190 461 206 165 12 886 26 891 18 4 -7 -11 -46
-41 -114 -8 -16 -30 -66 -49 -110 -41 -94 -42 -92 75 -96 l74 -3 40 70 c53 92
155 244 164 244 4 0 61 -7 126 -15 208 -27 257 -48 423 -185 53 -43 110 -83
125 -89 16 -6 70 -11 120 -11 l91 0 -74 76 c-269 274 -399 349 -671 389 -59 8
-155 14 -215 13 -60 -1 -85 -3 -56 -5z"/>
<path d="M4523 6803 c9 -2 23 -2 30 0 6 3 -1 5 -18 5 -16 0 -22 -2 -12 -5z"/>
<path d="M7380 6677 l0 -94 -25 5 c-47 8 -202 -66 -262 -126 -77 -77 -116
-223 -95 -358 16 -99 40 -152 98 -215 57 -60 108 -91 189 -114 115 -33 105
-18 105 -157 0 -68 -3 -139 -6 -159 -6 -36 -7 -36 -27 -20 -35 26 -102 94
-117 118 l-15 23 -107 -35 c-59 -19 -115 -35 -124 -35 -21 0 -14 -42 20 -116
50 -109 158 -190 291 -216 33 -7 62 -13 64 -15 3 -2 7 -36 10 -76 l6 -72 93
-3 92 -3 0 78 0 79 66 11 c236 41 401 265 364 495 -13 81 -60 177 -107 219
-48 42 -137 81 -242 108 -46 11 -85 22 -85 23 -1 2 1 66 4 142 3 93 9 141 17
143 17 6 78 -52 108 -102 l26 -44 42 32 c23 17 72 46 109 62 77 34 82 48 47
118 -49 96 -193 198 -302 213 l-48 6 2 87 2 86 -96 3 -97 3 0 -94z m148 -224
c-16 -2 -40 -2 -55 0 -16 2 -3 4 27 4 30 0 43 -2 28 -4z m65 -10 c-7 -2 -19
-2 -25 0 -7 3 -2 5 12 5 14 0 19 -2 13 -5z m-209 -170 c3 -21 6 -77 6 -125 0
-80 -2 -88 -19 -88 -31 0 -78 47 -96 94 -15 40 -15 46 -1 74 17 33 71 82 90
82 8 0 16 -17 20 -37z m250 -574 c47 -28 76 -76 76 -129 0 -53 -23 -92 -70
-119 -70 -39 -70 -39 -70 124 0 161 0 162 64 124z"/>
<path d="M4955 6543 c-99 -6 -252 -24 -372 -44 -171 -28 -353 -95 -353 -129 0
-4 224 -7 498 -8 l497 -2 29 52 c16 29 37 72 47 96 l18 42 -157 -2 c-86 -1
-179 -3 -207 -5z"/>
<path d="M5689 6440 c-24 -33 -45 -65 -47 -70 -2 -6 105 -10 295 -10 l298 0
-45 31 c-121 81 -211 109 -358 109 l-99 0 -44 -60z"/>
<path d="M4040 6240 c-316 -3 -471 -9 -485 -16 -11 -6 -41 -15 -67 -18 -39 -6
-48 -4 -48 8 0 11 14 16 48 19 26 2 18 3 -18 2 -68 -2 -170 -33 -150 -45 6 -4
-14 -12 -46 -18 -69 -14 -75 -14 -94 -2 -12 7 -10 12 10 31 l25 21 -35 -6
c-66 -13 -177 -74 -217 -120 -90 -102 -129 -220 -119 -358 9 -133 42 -218 131
-343 57 -80 89 -108 181 -164 114 -68 108 -89 -16 -56 -30 8 -56 12 -58 10
-10 -9 41 -65 90 -98 70 -49 119 -56 373 -59 185 -3 214 -1 242 15 44 24 99
80 121 124 l19 36 284 -1 284 -2 24 -37 c38 -62 103 -123 141 -133 19 -5 125
-10 235 -10 l200 1 -30 27 c-105 93 -175 261 -175 415 1 298 237 520 495 467
88 -18 149 -53 224 -128 104 -106 141 -200 141 -361 0 -78 -22 -195 -42 -218
-8 -11 17 -13 139 -13 l150 0 11 -25 c18 -39 99 -121 137 -139 23 -11 60 -16
127 -15 51 0 87 3 81 6 -23 9 -113 131 -140 190 -23 49 -28 74 -31 168 -3 93
-1 120 18 174 88 262 326 362 547 229 30 -18 57 -39 60 -45 15 -38 17 11 12
239 -4 139 -7 255 -8 257 0 2 -13 0 -28 -4 -16 -4 -317 -6 -670 -6 -353 1
-649 -2 -657 -5 -9 -3 -16 -12 -16 -19 0 -15 -59 -28 -84 -19 -9 3 -16 12 -16
20 0 7 -10 16 -22 18 -36 8 -772 11 -1278 6z m560 -31 c25 -5 56 -11 70 -13
32 -5 80 -27 80 -37 0 -4 -17 -3 -37 1 -84 19 -299 8 -286 -14 3 -6 0 -6 -8 2
-7 6 -23 12 -36 12 -13 0 -23 5 -23 10 0 6 14 10 31 10 26 0 30 3 26 19 -3 15
1 21 17 24 27 5 109 -2 166 -14z m2170 1 c0 -15 -6 -20 -27 -19 l-28 1 25 8
c14 4 21 8 17 9 -5 1 -5 6 -2 11 10 16 15 12 15 -10z m-3140 0 c0 -11 -14 -11
-50 0 -22 7 -21 8 13 9 20 1 37 -3 37 -9z m767 -6 c-3 -3 -12 -4 -19 -1 -8 3
-5 6 6 6 11 1 17 -2 13 -5z m-379 -101 c-21 -2 -57 -2 -80 0 -24 2 -7 4 37 4
44 0 63 -2 43 -4z m1352 -13 c14 -4 -11 -5 -55 -2 -44 2 -82 6 -84 8 -8 7 114
2 139 -6z m-2114 -101 c19 -11 46 -41 60 -65 61 -104 -6 -224 -126 -224 -40 0
-105 34 -126 65 -87 133 60 306 192 224z m1425 -2 c118 -79 102 -235 -29 -287
-132 -52 -267 115 -192 238 44 72 151 96 221 49z m-641 -17 l267 0 -10 -40
-11 -40 -369 0 c-221 0 -376 4 -387 10 -20 11 -42 64 -32 75 4 4 67 5 141 1
74 -3 254 -6 401 -6z m3 -187 l257 -6 0 -38 c0 -21 -4 -40 -10 -44 -5 -3 -189
-3 -408 1 l-399 7 10 38 c8 32 14 38 41 42 56 7 248 7 509 0z m215 -190 c45
-3 82 -10 82 -15 0 -5 -11 -20 -25 -33 l-24 -25 -404 0 -404 0 -23 25 c-29 31
-20 42 40 48 79 6 672 7 758 0z m-965 -124 c17 -24 18 -30 6 -55 -18 -36 -38
-40 -72 -14 -31 25 -35 55 -10 82 22 25 51 19 76 -13z m1300 -1 c15 -23 -6
-68 -32 -68 -20 0 -51 25 -51 41 0 16 41 50 57 47 9 -2 21 -11 26 -20z m-405
-65 c45 -6 57 -27 20 -36 -40 -10 -491 -20 -560 -13 -46 5 -68 12 -72 23 -4 9
-5 18 -3 20 20 19 480 24 615 6z"/>
<path d="M2195 6093 c-9 -32 -20 -74 -25 -92 -5 -19 -8 -36 -7 -37 1 -1 61
-15 132 -32 72 -17 186 -47 254 -67 68 -19 126 -33 130 -30 3 3 7 35 9 70 l4
65 -77 35 c-76 35 -376 145 -395 145 -5 0 -16 -26 -25 -57z"/>
<path d="M2125 5837 c-4 -13 -25 -150 -25 -166 0 -14 18 -18 210 -46 228 -33
216 -33 224 13 11 60 16 72 32 72 23 0 6 19 -30 34 -18 8 -94 28 -167 46 -74
18 -158 38 -187 45 -40 10 -54 11 -57 2z"/>
<path d="M5250 5801 c-130 -42 -223 -165 -251 -331 -9 -55 0 -134 22 -210 26
-84 124 -188 214 -226 115 -48 269 26 342 163 97 181 76 380 -52 508 -74 75
-203 119 -275 96z m174 -213 c37 -38 56 -66 65 -100 27 -95 -6 -206 -81 -274
-83 -75 -197 -26 -243 105 -32 92 -11 210 48 271 39 40 59 49 115 49 39 1 48
-4 96 -51z"/>
<path d="M5278 5517 c-71 -58 -60 -183 21 -231 32 -18 33 -18 59 1 15 11 33
37 41 59 12 35 12 46 -3 98 -10 33 -21 55 -24 50 -14 -20 -37 -9 -40 19 -4 33
-18 34 -54 4z"/>
<path d="M6479 5717 c-80 -30 -138 -94 -178 -195 -42 -106 -35 -240 17 -336
29 -54 100 -122 149 -142 45 -19 130 -17 178 5 59 26 149 129 175 198 50 132
23 288 -67 384 -71 76 -195 115 -274 86z m144 -166 c46 -30 80 -89 85 -147 5
-63 -34 -161 -80 -199 -61 -52 -138 -22 -183 69 -24 49 -27 65 -23 120 6 73
39 140 78 162 35 19 90 17 123 -5z"/>
<path d="M6504 5455 c-9 -14 -19 -45 -22 -70 -4 -41 -2 -47 31 -80 41 -41 58
-43 87 -13 16 17 20 35 20 86 0 84 -10 102 -60 102 -31 0 -43 -5 -56 -25z"/>
<path d="M2080 5436 l0 -96 199 0 200 0 6 48 c3 26 8 59 10 73 l4 26 -127 17
c-70 9 -164 20 -209 23 l-83 6 0 -97z"/>
<path d="M2113 5213 l-33 -4 0 -79 c0 -43 2 -84 5 -92 6 -15 146 -9 322 13 75
9 93 15 89 26 -3 8 -6 44 -6 79 l0 64 -172 -2 c-95 0 -188 -3 -205 -5z"/>
<path d="M2335 4934 c-200 -27 -235 -35 -234 -52 1 -32 25 -172 31 -177 3 -3
87 15 186 40 100 25 190 45 202 45 11 0 20 2 20 5 0 4 -16 85 -26 133 -5 26
-26 27 -179 6z"/>
<path d="M7033 4929 c4 -15 -13 -136 -27 -194 -25 -106 -53 -198 -72 -237 -14
-27 -21 -54 -17 -64 4 -11 3 -15 -5 -10 -6 4 -16 -8 -23 -29 -7 -19 -17 -35
-21 -35 -4 0 -8 -10 -8 -23 0 -13 -5 -28 -10 -33 -6 -6 -12 -25 -14 -42 -4
-30 -25 -77 -26 -57 0 5 -7 -1 -16 -13 -8 -12 -12 -26 -9 -32 3 -5 0 -7 -8 -4
-22 8 -27 -8 -20 -65 4 -33 10 -51 19 -51 8 0 14 -6 14 -12 0 -9 4 -8 10 2 6
10 10 11 10 3 0 -7 7 -13 15 -13 8 0 15 -4 15 -10 0 -5 9 -10 20 -10 26 0 25
-18 -2 -49 -19 -21 -17 -20 10 3 17 17 32 27 32 23 0 -10 -115 -142 -210 -240
-144 -150 -245 -226 -515 -382 -105 -61 -366 -168 -412 -169 -17 -1 -29 -4
-27 -8 7 -10 -74 -30 -88 -22 -6 4 -8 3 -5 -3 7 -11 -99 -38 -234 -58 -52 -8
-173 -16 -269 -19 -138 -3 -150 -2 -55 3 66 4 113 8 105 9 -13 2 -13 4 -1 11
26 17 -25 22 -174 19 -89 -3 -132 -7 -117 -12 27 -10 29 -26 3 -26 -95 0 -460
88 -626 151 -309 118 -685 378 -907 628 -38 42 -68 81 -68 88 0 6 -3 13 -8 15
-14 6 -92 104 -92 116 0 7 -3 12 -7 12 -17 0 -144 234 -142 262 0 7 4 3 9 -9
9 -23 40 -32 40 -13 0 6 9 10 20 10 11 0 20 5 20 10 0 6 7 10 16 10 22 0 53
32 36 38 -21 7 -14 42 8 42 15 0 20 7 20 26 0 14 -4 23 -10 19 -6 -4 -10 5 -8
22 1 15 -4 44 -10 63 -15 47 -69 274 -77 328 l-7 42 -219 0 -219 0 5 -22 c2
-13 11 -63 19 -113 17 -102 54 -220 122 -392 123 -312 279 -548 524 -791 189
-188 353 -309 616 -452 582 -317 1280 -381 1884 -171 319 110 580 255 816 452
99 83 323 318 399 419 107 142 238 377 290 520 45 125 106 379 112 471 l6 85
-217 0 c-196 -1 -217 -3 -213 -17z m274 -91 c-3 -7 -5 -2 -5 12 0 14 2 19 5
13 2 -7 2 -19 0 -25z m-14 -48 c-3 -12 -8 -19 -11 -16 -5 6 5 36 12 36 2 0 2
-9 -1 -20z m-13 -44 c0 -3 -4 -8 -10 -11 -5 -3 -10 -1 -10 4 0 6 5 11 10 11 6
0 10 -2 10 -4z m-4363 -38 c-3 -8 -6 -5 -6 6 -1 11 2 17 5 13 3 -3 4 -12 1
-19z m28 -45 c3 -10 8 -36 10 -58 3 -34 2 -36 -6 -16 -5 14 -7 31 -5 38 3 7 2
13 -3 13 -5 0 -11 9 -14 20 -6 25 8 27 18 3z"/>
<path d="M3280 4903 c0 -76 64 -283 130 -419 l40 -83 88 30 c108 39 130 50
164 86 36 37 55 85 63 158 4 33 9 68 11 78 5 16 33 17 411 17 l405 0 59 48
c32 26 77 61 101 77 l43 30 -210 2 c-115 2 -456 4 -758 5 l-547 3 0 -32z"/>
<path d="M5385 4931 l-50 -6 38 -8 c25 -5 58 -26 94 -59 93 -84 79 -81 498
-88 l370 -5 7 -61 c15 -135 45 -193 123 -236 46 -26 196 -78 223 -78 18 0 87
144 110 232 18 65 62 285 62 310 0 9 -1398 8 -1475 -1z"/>
<path d="M7640 4908 c0 -18 -3 -50 -6 -70 -5 -27 -3 -39 7 -42 31 -10 355 -95
374 -98 18 -3 22 8 41 120 l20 122 -218 0 -218 0 0 -32z"/>
<path d="M4922 4799 c-77 -15 -201 -88 -277 -164 -137 -135 -204 -279 -213
-456 -12 -242 95 -456 296 -591 110 -74 186 -100 312 -105 179 -8 292 27 421
133 259 212 330 583 166 873 -62 110 -240 273 -334 307 -43 15 -299 18 -371 3z
m289 -155 c88 -26 143 -59 198 -120 63 -68 103 -136 133 -224 32 -91 30 -219
-4 -311 -75 -203 -181 -306 -363 -354 -74 -19 -105 -19 -195 0 -101 21 -173
59 -239 124 -101 100 -161 246 -161 392 0 210 147 426 335 491 66 23 221 24
296 2z"/>
<path d="M5030 4514 c0 -29 -3 -32 -41 -38 -77 -12 -137 -59 -170 -131 -35
-76 -20 -143 46 -207 45 -43 101 -65 193 -74 80 -9 119 -36 108 -77 -13 -52
-113 -55 -226 -6 -27 12 -56 19 -63 16 -8 -3 -26 -27 -41 -53 -25 -45 -26 -48
-9 -67 24 -26 99 -63 157 -78 41 -10 46 -14 46 -40 0 -28 2 -29 49 -29 46 0
50 2 53 26 3 28 7 31 76 60 52 21 118 93 133 144 20 66 -10 146 -71 192 -14
10 -72 30 -130 43 -148 36 -160 42 -160 75 0 41 41 70 97 70 43 0 90 -17 145
-54 27 -17 27 -17 42 12 9 17 29 41 46 54 l31 25 -41 27 c-23 15 -70 38 -104
51 -56 21 -61 26 -66 56 -5 33 -6 34 -52 35 -47 0 -48 0 -48 -32z"/>
<path d="M2348 4631 c-97 -25 -179 -49 -182 -52 -3 -3 8 -49 25 -103 28 -90
32 -97 52 -90 12 3 85 29 162 56 77 27 154 54 171 60 l31 11 -14 46 c-7 25
-18 63 -24 84 -7 25 -15 37 -27 36 -9 -1 -97 -22 -194 -48z"/>
<path d="M7596 4668 c-2 -7 -13 -41 -23 -76 l-20 -64 26 -10 c14 -5 73 -27
131 -48 58 -21 136 -49 174 -64 39 -14 71 -24 72 -23 4 4 46 160 48 176 1 11
-52 29 -189 68 -208 58 -214 59 -219 41z"/>
<path d="M3239 4431 c6 -10 7 -22 3 -26 -4 -5 -1 -5 6 -1 9 5 9 12 2 27 -6 10
-13 19 -16 19 -2 0 0 -8 5 -19z"/>
<path d="M3887 4426 c-99 -27 -177 -128 -177 -230 0 -41 6 -62 29 -97 46 -68
54 -76 116 -114 72 -43 126 -46 200 -11 92 44 155 134 155 224 0 99 -66 189
-162 222 -66 23 -94 24 -161 6z m144 -157 c62 -66 20 -169 -69 -169 -75 0
-116 61 -92 135 15 44 44 65 93 65 31 0 45 -7 68 -31z"/>
<path d="M6064 4422 c-50 -24 -112 -85 -132 -132 -23 -54 -20 -147 7 -204 28
-58 101 -118 164 -136 93 -26 213 29 266 122 56 98 38 202 -49 287 -77 75
-177 99 -256 63z m119 -133 c49 -26 67 -51 67 -97 0 -35 -6 -49 -29 -73 -31
-31 -59 -36 -94 -18 -78 40 -91 107 -33 165 36 36 54 41 89 23z"/>
<path d="M7504 4384 c-8 -19 -21 -50 -29 -71 -8 -20 -14 -37 -13 -39 2 -1 91
-46 198 -98 l195 -96 16 47 c9 27 26 68 37 92 12 25 21 46 19 47 -9 9 -287
115 -365 139 l-44 14 -14 -35z"/>
<path d="M2505 4353 c-77 -30 -163 -63 -191 -72 l-51 -16 39 -90 c21 -49 42
-93 47 -98 6 -6 308 124 369 158 1 1 -11 31 -26 66 -16 35 -33 74 -38 86 -9
22 -10 21 -149 -34z"/>
<path d="M7370 4103 c-35 -76 -36 -74 45 -115 22 -11 95 -56 162 -99 67 -44
125 -79 130 -79 5 0 29 38 55 85 l46 84 -42 24 c-61 36 -342 167 -357 167 -5
0 -23 -30 -39 -67z"/>
<path d="M2584 4046 l-180 -91 52 -90 c29 -50 55 -94 56 -99 2 -5 15 -3 28 4
24 12 288 186 302 199 9 8 -57 165 -69 167 -4 0 -89 -40 -189 -90z"/>
<path d="M7236 3883 l-39 -56 24 -19 c13 -11 70 -59 127 -106 136 -114 202
-166 206 -161 8 9 96 158 96 162 0 14 -359 241 -374 237 0 -1 -19 -26 -40 -57z"/>
<path d="M2805 3799 c-60 -44 -134 -94 -163 -112 -29 -17 -50 -37 -48 -43 3
-7 30 -51 61 -99 l55 -86 52 43 c29 24 100 84 159 134 l107 92 -50 76 c-28 42
-53 76 -57 75 -3 0 -55 -36 -116 -80z"/>
<path d="M6650 3855 c0 -8 7 -15 15 -15 8 0 15 7 15 15 0 8 -7 15 -15 15 -8 0
-15 -7 -15 -15z"/>
<path d="M4325 3739 c-22 -4 -62 -8 -90 -9 -97 -1 -88 -14 56 -84 132 -64 252
-110 271 -104 19 7 -163 209 -185 207 -7 -1 -30 -5 -52 -10z"/>
<path d="M5740 3718 c-12 -12 -40 -49 -61 -80 -22 -32 -49 -67 -61 -78 l-22
-20 31 0 c31 0 63 15 247 115 l109 60 -84 7 c-46 3 -96 9 -110 13 -20 5 -32 1
-49 -17z"/>
<path d="M7097 3684 c-26 -31 -47 -61 -47 -68 0 -20 260 -294 300 -316 12 -7
29 9 73 67 32 41 57 78 55 82 -4 10 -152 139 -208 181 -25 18 -63 51 -85 72
l-41 38 -47 -56z"/>
<path d="M6294 3704 c-18 -14 -18 -15 4 -4 12 6 22 13 22 15 0 8 -5 6 -26 -11z"/>
<path d="M3063 3597 c-21 -18 -69 -58 -108 -89 -38 -31 -89 -76 -113 -101
l-43 -44 60 -80 c99 -130 85 -128 177 -21 43 50 102 120 131 154 29 34 57 65
63 69 10 6 -106 145 -122 145 -4 0 -25 -15 -45 -33z"/>
<path d="M5932 3493 c-29 -14 -51 -27 -49 -29 5 -5 83 28 107 45 26 18 -3 10
-58 -16z"/>
<path d="M6901 3471 c-53 -48 -53 -48 -38 -77 19 -35 214 -280 249 -311 l24
-23 69 70 68 69 -25 33 c-41 53 -272 288 -283 288 -5 -1 -34 -22 -64 -49z"/>
<path d="M5850 3450 c-13 -8 -12 -10 3 -10 9 0 17 5 17 10 0 12 -1 12 -20 0z"/>
<path d="M5782 3423 c-24 -8 -41 -17 -39 -19 5 -5 69 16 82 27 11 11 10 11
-43 -8z"/>
<path d="M3225 3303 c-54 -60 -118 -135 -142 -168 l-45 -59 24 -19 c12 -10 45
-40 72 -65 l49 -46 29 34 c15 19 65 87 110 150 45 63 93 127 107 143 l25 27
-24 17 c-14 10 -44 34 -66 55 l-41 38 -98 -107z"/>
<path d="M5455 3330 c-27 -7 -27 -8 -5 -8 14 0 36 4 50 8 20 6 21 8 5 8 -11 0
-33 -4 -50 -8z"/>
<path d="M6750 3315 c-7 -9 -42 -34 -76 -57 -35 -22 -64 -44 -64 -47 0 -3 28
-44 63 -91 34 -47 89 -127 122 -177 33 -51 63 -93 68 -93 4 0 31 19 60 43 29
23 67 53 85 67 l33 25 -28 36 c-15 20 -62 77 -103 125 -42 49 -91 110 -110
137 -18 26 -34 47 -35 47 -2 0 -8 -7 -15 -15z"/>
<path d="M3510 3203 c-14 -20 -69 -97 -122 -171 -90 -123 -111 -162 -90 -162
4 0 36 -23 71 -51 76 -61 67 -65 159 86 34 55 79 129 102 164 22 35 40 68 40
75 0 9 -101 82 -129 93 -3 2 -17 -14 -31 -34z"/>
<path d="M6500 3128 c-14 -11 -47 -31 -73 -45 -43 -21 -48 -27 -43 -49 6 -21
160 -324 184 -362 7 -10 30 0 95 44 48 31 87 61 87 66 0 18 -74 142 -150 254
l-76 111 -24 -19z"/>
<path d="M4820 3110 c0 -5 6 -10 14 -10 8 0 23 -3 33 -6 16 -6 16 -5 -2 9 -23
19 -45 22 -45 7z"/>
<path d="M3747 3051 c-81 -120 -187 -309 -187 -335 0 -8 32 -35 72 -61 l71
-47 19 23 c10 13 59 104 108 201 79 156 88 177 72 182 -10 4 -44 21 -75 40
l-56 34 -24 -37z"/>
<path d="M6215 2963 c-33 -18 -85 -40 -115 -49 -30 -9 -71 -24 -92 -35 l-37
-19 29 -32 c30 -32 52 -92 70 -190 11 -58 41 -159 49 -170 4 -4 25 -2 49 4 41
10 42 11 42 54 0 23 5 46 10 49 6 4 26 -5 45 -19 18 -14 36 -26 38 -26 3 0 44
18 91 41 l85 41 -64 127 c-60 115 -106 202 -131 241 -8 13 -17 11 -69 -17z"/>
<path d="M3932 2776 c-50 -99 -93 -189 -96 -199 -5 -15 10 -25 82 -58 48 -22
91 -41 95 -42 5 -1 32 57 61 129 29 72 68 164 86 203 18 39 31 73 29 74 -2 2
-41 19 -85 39 l-82 36 -90 -182z"/>
<path d="M4252 2716 c-50 -124 -102 -271 -102 -287 0 -3 37 -16 83 -27 45 -12
91 -24 102 -27 18 -6 23 4 48 92 15 54 38 134 51 178 13 44 26 96 30 116 l7
37 -53 12 c-29 7 -67 18 -83 25 l-30 12 -53 -131z"/>
<path d="M5788 2803 c-69 -22 -77 -28 -73 -47 29 -139 46 -226 60 -301 9 -49
18 -92 21 -94 3 -3 48 6 100 19 l96 24 -5 35 c-34 219 -81 392 -106 390 -9 -1
-51 -12 -93 -26z"/>
<path d="M4546 2630 c-40 -163 -67 -293 -60 -299 2 -2 49 -11 103 -20 l100
-17 5 26 c3 14 15 97 26 185 12 87 25 175 29 195 l8 37 -87 19 -88 20 -36
-146z"/>
<path d="M5497 2743 c-63 -12 -77 -18 -73 -32 2 -9 7 -45 11 -81 7 -77 37
-334 39 -337 1 -1 35 5 76 13 41 8 88 14 103 14 l29 0 -7 58 c-3 31 -21 129
-38 217 -24 119 -36 160 -47 161 -8 1 -50 -5 -93 -13z"/>
<path d="M4860 2724 c0 -5 -9 -83 -20 -174 -11 -91 -20 -191 -20 -222 l0 -57
99 -3 99 -3 6 59 c3 32 6 135 6 227 l0 169 -47 0 c-27 0 -65 3 -85 6 -21 4
-38 3 -38 -2z"/>
<path d="M5193 2713 l-53 -4 0 -193 c0 -107 3 -207 6 -224 l6 -30 67 5 c36 2
81 6 100 9 l34 5 -6 102 c-3 56 -11 155 -18 220 l-13 117 -35 -2 c-20 -1 -60
-3 -88 -5z"/>
<path d="M3323 2625 c-7 -8 -9 -16 -4 -19 5 -3 12 1 15 10 8 22 4 25 -11 9z"/>
<path d="M4675 8870 c-7 -12 38 -12 75 0 20 7 16 8 -22 9 -26 1 -50 -3 -53 -9z"/>
<path d="M4628 8863 c6 -2 18 -2 25 0 6 3 1 5 -13 5 -14 0 -19 -2 -12 -5z"/>
<path d="M5678 8843 c6 -2 18 -2 25 0 6 3 1 5 -13 5 -14 0 -19 -2 -12 -5z"/>
<path d="M5740 8830 c14 -4 34 -8 45 -8 16 0 15 2 -5 8 -14 4 -34 8 -45 8 -16
0 -15 -2 5 -8z"/>
<path d="M5818 8813 c7 -3 16 -2 19 1 4 3 -2 6 -13 5 -11 0 -14 -3 -6 -6z"/>
<path d="M4288 8803 c6 -2 18 -2 25 0 6 3 1 5 -13 5 -14 0 -19 -2 -12 -5z"/>
<path d="M6088 8743 c7 -3 16 -2 19 1 4 3 -2 6 -13 5 -11 0 -14 -3 -6 -6z"/>
<path d="M3960 8710 c-41 -16 -70 -29 -64 -29 13 -1 68 16 109 34 17 7 39 15
50 18 l20 5 -20 0 c-11 0 -54 -13 -95 -28z"/>
<path d="M3740 8630 c-13 -8 -12 -10 3 -10 9 0 17 5 17 10 0 12 -1 12 -20 0z"/>
<path d="M4498 8623 c6 -2 18 -2 25 0 6 3 1 5 -13 5 -14 0 -19 -2 -12 -5z"/>
<path d="M6415 8620 c27 -12 43 -12 25 0 -8 5 -22 9 -30 9 -10 0 -8 -3 5 -9z"/>
<path d="M3680 8604 l-25 -15 25 7 c14 3 29 10 35 15 15 14 -7 10 -35 -7z"/>
<path d="M4448 8613 c6 -2 18 -2 25 0 6 3 1 5 -13 5 -14 0 -19 -2 -12 -5z"/>
<path d="M6476 8595 c10 -8 24 -14 29 -14 6 0 1 6 -9 14 -11 8 -24 15 -30 15
-5 0 -1 -7 10 -15z"/>
<path d="M3430 8480 c-9 -6 -10 -10 -3 -10 6 0 15 5 18 10 8 12 4 12 -15 0z"/>
<path d="M3385 8460 c-3 -6 1 -7 9 -4 18 7 21 14 7 14 -6 0 -13 -4 -16 -10z"/>
<path d="M3760 8450 c0 -5 9 -10 20 -10 11 0 20 5 20 10 0 6 -9 10 -20 10 -11
0 -20 -4 -20 -10z"/>
<path d="M3800 8430 c-9 -6 -10 -10 -3 -10 6 0 15 5 18 10 8 12 4 12 -15 0z"/>
<path d="M3720 8390 c0 -5 4 -10 9 -10 6 0 13 5 16 10 3 6 -1 10 -9 10 -9 0
-16 -4 -16 -10z"/>
<path d="M3255 8380 c-3 -5 -1 -10 4 -10 6 0 11 5 11 10 0 6 -2 10 -4 10 -3 0
-8 -4 -11 -10z"/>
<path d="M3165 8334 l-30 -26 33 22 c17 12 32 23 32 26 0 7 -4 5 -35 -22z"/>
<path d="M3640 8350 c0 -5 7 -7 15 -4 8 4 15 8 15 10 0 2 -7 4 -15 4 -8 0 -15
-4 -15 -10z"/>
<path d="M6970 8346 c0 -2 8 -10 18 -17 15 -13 16 -12 3 4 -13 16 -21 21 -21
13z"/>
<path d="M3105 8299 c-11 -17 1 -21 15 -4 8 9 8 15 2 15 -6 0 -14 -5 -17 -11z"/>
<path d="M2932 8170 c-12 -11 -25 -20 -30 -20 -5 0 -16 -7 -23 -17 -13 -15
-12 -15 7 -5 12 6 23 10 25 8 2 -2 14 10 27 25 27 34 25 37 -6 9z"/>
<path d="M7251 8142 c7 -12 15 -19 18 -17 2 3 10 0 18 -6 7 -6 13 -9 13 -6 0
3 -14 16 -31 28 -30 21 -31 21 -18 1z"/>
<path d="M3206 8112 c-3 -5 1 -9 9 -9 8 0 12 4 9 9 -3 4 -7 8 -9 8 -2 0 -6 -4
-9 -8z"/>
<path d="M2829 8093 c-13 -16 -12 -17 4 -4 9 7 17 15 17 17 0 8 -8 3 -21 -13z"/>
<path d="M7310 8102 c0 -12 19 -26 26 -19 2 2 -2 10 -11 17 -9 8 -15 8 -15 2z"/>
<path d="M2785 8059 c-4 -6 -5 -12 -2 -15 2 -3 7 2 10 11 7 17 1 20 -8 4z"/>
<path d="M3130 8060 c0 -5 5 -10 10 -10 6 0 10 5 10 10 0 6 -4 10 -10 10 -5 0
-10 -4 -10 -10z"/>
<path d="M7670 7776 c0 -2 7 -9 15 -16 13 -11 14 -10 9 4 -5 14 -24 23 -24 12z"/>
<path d="M7790 7640 c0 -5 10 -15 23 -21 22 -12 22 -12 3 10 -21 23 -26 26
-26 11z"/>
<path d="M7771 7454 c0 -11 3 -14 6 -6 3 7 2 16 -1 19 -3 4 -6 -2 -5 -13z"/>
<path d="M8003 7360 c1 -11 7 -20 14 -20 11 0 11 5 3 20 -6 11 -13 20 -15 20
-2 0 -3 -9 -2 -20z"/>
<path d="M8080 7230 c0 -5 5 -10 10 -10 6 0 10 5 10 10 0 6 -4 10 -10 10 -5 0
-10 -4 -10 -10z"/>
<path d="M6980 1451 c14 -4 61 -10 105 -14 51 -3 65 -3 40 2 -57 12 -175 21
-145 12z"/>
</g>
</svg>
